<?xml version="1.0" standalone="no"?>
<!DOCTYPE svg PUBLIC "-//W3C//DTD SVG 20010904//EN"
 "http://www.w3.org/TR/2001/REC-SVG-20010904/DTD/svg10.dtd">
<svg version="1.0" xmlns="http://www.w3.org/2000/svg"
 width="200.000000pt" height="200.000000pt" viewBox="0 0 200.000000 200.000000"
 preserveAspectRatio="xMidYMid meet">

<g transform="translate(0.000000,200.000000) scale(0.100000,-0.100000)"
fill="#91877F" stroke="none" >
<path d="M904 1456 c-147 -69 -174 -273 -49 -373 53 -43 47 -64 -29 -102 -124
-61 -207 -186 -210 -316 l-1 -60 385 0 385 0 -2 63 c-3 125 -90 255 -209 313
-78 39 -80 54 -20 112 84 80 94 201 26 295 -36 50 -118 92 -179 92 -27 0 -67
-10 -97 -24z"/>
</g>
</svg>
