<?xml version="1.0" standalone="no"?>
<!DOCTYPE svg PUBLIC "-//W3C//DTD SVG 20010904//EN"
 "http://www.w3.org/TR/2001/REC-SVG-20010904/DTD/svg10.dtd">
<svg version="1.0" xmlns="http://www.w3.org/2000/svg"
 width="32.000000pt" height="32.000000pt" viewBox="0 0 32.000000 32.000000"
 preserveAspectRatio="xMidYMid meet">

<g transform="translate(0.000000,32.000000) scale(0.100000,-0.100000)"
fill="#91877F" stroke="none">
<path d="M86 288 c-19 -27 -20 -39 -4 -73 13 -28 52 -35 62 -9 10 26 7 79 -6
92 -18 18 -35 15 -52 -10z m52 -21 c6 -30 -7 -67 -23 -67 -22 0 -38 46 -24 71
12 24 42 21 47 -4z"/>
<path d="M187 292 c-19 -21 -22 -64 -7 -93 30 -55 95 21 68 79 -16 33 -39 39
-61 14z m51 -43 c4 -47 -23 -74 -44 -44 -26 36 -14 88 20 83 16 -2 22 -11 24
-39z"/>
<path d="M8 175 c-17 -38 0 -80 32 -80 29 0 46 38 36 79 -9 36 -52 37 -68 1z
m58 -9 c6 -26 -10 -66 -27 -66 -19 0 -32 46 -20 69 16 28 39 27 47 -3z"/>
<path d="M251 174 c-25 -31 -27 -57 -6 -74 21 -17 51 -4 65 30 26 62 -18 96
-59 44z m54 5 c9 -13 -13 -66 -30 -73 -26 -10 -38 20 -20 53 16 31 38 40 50
20z"/>
<path d="M95 100 c-41 -42 -48 -53 -39 -68 9 -14 27 -17 104 -17 79 0 94 3
104 18 9 15 7 22 -12 35 -13 9 -37 32 -54 50 -17 17 -36 32 -42 32 -7 0 -34
-23 -61 -50z m119 -14 c34 -32 43 -46 34 -52 -22 -14 -177 -12 -182 1 -6 16
64 94 85 94 8 1 36 -19 63 -43z"/>
</g>
</svg>
